<svg width="4344" height="2160" viewBox="0 0 4344 2160" fill="none" xmlns="http://www.w3.org/2000/svg">
<path d="M1171.6 1972.8C1114 1972.8 1061.2 1966.2 1013.2 1953C965.2 1939.8 932.8 1927.8 916 1917L970 1755C990.4 1763.4 1019.2 1773 1056.4 1783.8C1094.8 1795.8 1138 1801.8 1186 1801.8H1205.8C1261 1801.8 1309.6 1785 1351.6 1751.4C1394.8 1719 1427.8 1675.2 1450.6 1620H1360.6L1007.8 813.6H1259.8L1466.8 1310.4L1513.6 1440H1531.6L1578.4 1310.4L1789 813.6H2033.8L2005 923.4C1982.2 970.2 1955.8 1024.2 1925.8 1085.4C1897 1145.4 1867 1207.8 1835.8 1272.6C1804.6 1337.4 1774 1399.8 1744 1459.8C1715.2 1519.8 1689.4 1573.2 1666.6 1620C1631.8 1692 1593.4 1754.4 1551.4 1807.2C1510.6 1860 1463.2 1900.8 1409.2 1929.6C1356.4 1958.4 1293.4 1972.8 1220.2 1972.8H1171.6ZM2159.48 1620V813.6H2307.08L2379.08 849.6C2429.48 840 2490.08 831.6 2560.88 824.4C2631.68 817.2 2712.68 813.6 2803.88 813.6H2893.88C2953.88 813.6 3000.08 822 3032.48 838.8C3064.88 855.6 3087.68 876.6 3100.88 901.8C3115.28 927 3123.68 952.8 3126.08 979.2C3129.68 1004.4 3131.48 1026 3131.48 1044V1620H2911.88V1040.4C2911.88 992.4 2883.08 968.4 2825.48 968.4H2433.08C2410.28 968.4 2395.28 970.8 2388.08 975.6C2382.08 979.2 2379.08 990 2379.08 1008V1620H2159.48ZM4201.17 1638C4150.77 1638 4107.57 1632 4071.57 1620C4036.77 1608 3999.57 1582.2 3959.97 1542.6C3956.37 1539 3946.77 1529.4 3931.17 1513.8C3915.57 1498.2 3898.17 1480.8 3878.97 1461.6C3860.97 1442.4 3844.17 1425 3828.57 1409.4C3812.97 1393.8 3802.77 1383.6 3797.97 1378.8C3767.97 1348.8 3739.17 1325.4 3711.57 1308.6C3685.17 1291.8 3652.17 1283.4 3612.57 1283.4C3586.17 1283.4 3570.57 1285.8 3565.77 1290.6C3560.97 1295.4 3558.57 1311.6 3558.57 1339.2V1620H3338.97V480.6H3558.57V1128.6H3616.17C3637.77 1128.6 3656.97 1120.2 3673.77 1103.4C3684.57 1092.6 3704.97 1071 3734.97 1038.6C3764.97 1006.2 3798.57 969.6 3835.77 928.8C3874.17 888 3908.97 850.2 3940.17 815.4H4204.77L4175.97 871.2C4148.37 900 4118.37 930.6 4085.97 963C4053.57 994.2 4021.77 1024.8 3990.57 1054.8C3960.57 1083.6 3932.97 1109.4 3907.77 1132.2C3882.57 1153.8 3863.37 1168.2 3850.17 1175.4C3886.17 1194.6 3918.57 1216.8 3947.37 1242C3976.17 1266 4007.37 1293.6 4040.97 1324.8C4074.57 1354.8 4114.77 1389 4161.57 1427.4C4203.57 1461 4242.57 1480.8 4278.57 1486.8C4314.57 1491.6 4336.17 1494 4343.37 1494L4310.97 1620C4298.97 1623.6 4282.77 1627.2 4262.37 1630.8C4241.97 1635.6 4221.57 1638 4201.17 1638Z" fill="white"/>
<path d="M21 720C656.774 882.369 805.54 1137.27 678.298 1231.13C551.055 1324.99 96.5098 1377.82 125.307 1473.03C154.104 1568.23 678.298 1758 678.298 1758" stroke="white" stroke-width="167"/>
</svg>
